<?xml version="1.0" standalone="no"?>
<!DOCTYPE svg PUBLIC "-//W3C//DTD SVG 20010904//EN"
 "http://www.w3.org/TR/2001/REC-SVG-20010904/DTD/svg10.dtd">
<svg version="1.0" xmlns="http://www.w3.org/2000/svg"
 width="50.000000pt" height="50.000000pt" viewBox="0 0 50.000000 50.000000"
 preserveAspectRatio="xMidYMid meet">

<g transform="translate(0.000000,50.000000) scale(0.100000,-0.100000)"
fill="#000000" stroke="none">
<path d="M95 431 c-11 -5 -29 -19 -41 -32 -27 -31 -58 -113 -44 -117 14 -5 13
-38 -2 -62 -10 -16 -10 -24 0 -40 6 -11 12 -35 12 -54 0 -64 8 -66 230 -66
222 0 230 2 230 66 0 19 6 43 12 54 10 16 10 24 0 40 -15 24 -16 57 -2 62 15
5 -23 95 -53 126 -27 27 -29 27 -175 29 -81 1 -156 -1 -167 -6z m310 -23 c22
-10 55 -53 55 -73 0 -3 -94 -5 -210 -5 -116 0 -210 3 -210 8 1 18 29 56 51 68
32 17 277 19 314 2z m65 -107 c0 -8 -29 -11 -107 -11 -13 1 -36 0 -53 0 -62 0
-91 0 -112 1 -13 0 -34 0 -48 0 -74 -2 -120 2 -120 10 0 5 92 9 220 9 128 0
220 -4 220 -9z m-356 -31 c16 -6 35 -6 50 0 15 5 37 5 60 -2 26 -8 42 -8 61 0
17 8 33 8 50 2 15 -6 34 -6 48 -1 30 12 77 2 77 -15 0 -12 -38 -14 -210 -14
-175 0 -210 2 -210 14 0 8 10 17 23 19 12 2 23 5 24 6 1 0 13 -3 27 -9z m361
-70 c0 -13 -32 -15 -219 -18 -127 -1 -224 2 -229 7 -27 27 9 31 226 29 189 -3
222 -5 222 -18z m-17 -77 l-3 -38 -205 0 -205 0 -3 38 -3 37 211 0 211 0 -3
-37z"/>
<path d="M160 395 c0 -8 7 -15 15 -15 8 0 15 7 15 15 0 8 -7 15 -15 15 -8 0
-15 -7 -15 -15z"/>
<path d="M110 385 c0 -8 7 -15 15 -15 8 0 15 -7 15 -15 0 -8 7 -15 15 -15 8 0
15 7 15 15 0 8 -7 15 -15 15 -8 0 -15 7 -15 15 0 8 -7 15 -15 15 -8 0 -15 -7
-15 -15z"/>
</g>
</svg>
